# xmcd
#
# Track frame offsets: 
#        150
#        54006
#        88131
#        134279
#        177608
#        208154
#        238714
#        270046
#        305585
#
# Disc length: 4714 seconds
#
# Revision: 4
# Processed by: cddbd v1.5.2PL0 Copyright (c) Steve Scherf et al.
# Submitted via: ExactAudioCopyFreeDBPlugin 1.0
#
DISCID=78126809
DTITLE=Andreas Fröhlich - Eragon [CD01)
DYEAR=2005
DGENRE=Hörbuch
TTITLE0=Prolog: Schatten der Angst
TTITLE1=Die Entdeckung
TTITLE2=Das Palancar-Tal (Teil 1)
TTITLE3=Das Palancar-Tal (Teil 2)
TTITLE4=Das Palancar-Tal (Teil 3)
TTITLE5=Drachengeschichten (Teil 1)
TTITLE6=Drachengeschichten (Teil 2)
TTITLE7=Drachengeschichten (Teil 3)
TTITLE8=Drachengeschichten (Teil 4)
EXTD=YEAR: 2005
EXTT0=
EXTT1=
EXTT2=
EXTT3=
EXTT4=
EXTT5=
EXTT6=
EXTT7=
EXTT8=
PLAYORDER=
